<svg id="svg" xmlns="http://www.w3.org/2000/svg" xmlns:xlink="http://www.w3.org/1999/xlink" width="400" height="402.4096385542169" viewBox="0, 0, 400,402.4096385542169"><g id="svgg"><path id="path0" d="M184.337 1.192 C 106.554 8.585,42.751 55.856,14.018 127.380 C 6.080 147.142,0.000 174.145,0.000 189.643 C 0.000 191.121,1.514 191.165,52.501 191.165 L 105.001 191.165 106.381 184.217 C 118.389 123.751,181.623 89.592,237.125 113.587 C 264.973 125.627,285.066 149.818,292.156 179.843 C 293.262 184.524,294.293 188.805,294.447 189.357 C 294.789 190.575,398.799 190.851,399.550 189.637 C 400.242 188.517,397.152 166.940,394.822 156.627 C 377.324 79.165,312.260 16.890,235.341 3.982 C 213.678 0.346,200.706 -0.363,184.337 1.192 M186.345 128.917 C 150.557 136.154,127.292 164.804,127.321 201.606 C 127.354 244.128,157.485 274.244,200.000 274.249 L 214.859 274.251 222.088 271.572 C 260.134 257.471,279.266 223.105,271.099 183.534 C 263.720 147.779,222.962 121.514,186.345 128.917 M212.907 172.411 C 225.871 178.477,233.839 193.027,231.412 206.200 C 224.278 244.915,168.605 240.506,168.331 201.205 C 168.171 178.115,192.085 162.667,212.907 172.411 M0.395 219.076 C 10.482 336.990,123.078 421.734,238.554 398.324 C 327.191 380.355,387.938 311.999,399.631 217.068 L 400.151 212.851 347.134 212.851 L 294.117 212.851 293.586 216.265 C 283.704 279.774,214.204 315.586,157.186 286.548 C 129.166 272.278,113.049 249.830,105.574 214.659 L 105.190 212.851 52.527 212.851 L -0.137 212.851 0.395 219.076 " stroke="none" fill="#000000" fill-rule="evenodd"></path></g></svg>